<mxfile host="app.diagrams.net" agent="Mozilla/5.0 (X11; Linux x86_64) AppleWebKit/537.36 (KHTML, like Gecko) Chrome/130.0.0.0 Safari/537.36" version="24.8.6">
  <diagram name="Страница — 1" id="uLeaWici2X27b1JlDTIq">
    <mxGraphModel dx="2520" dy="759" grid="1" gridSize="10" guides="1" tooltips="1" connect="1" arrows="1" fold="1" page="1" pageScale="1" pageWidth="827" pageHeight="1169" math="0" shadow="0">
      <root>
        <mxCell id="0" />
        <mxCell id="1" parent="0" />
        <mxCell id="-BuoO3h8ccpWQLP4G7d4-18" style="rounded=0;orthogonalLoop=1;jettySize=auto;html=1;exitX=0.5;exitY=0.5;exitDx=0;exitDy=0;exitPerimeter=0;entryX=0;entryY=0.5;entryDx=0;entryDy=0;endArrow=none;endFill=0;" parent="1" source="-BuoO3h8ccpWQLP4G7d4-2" target="-BuoO3h8ccpWQLP4G7d4-10" edge="1">
          <mxGeometry relative="1" as="geometry" />
        </mxCell>
        <mxCell id="-BuoO3h8ccpWQLP4G7d4-19" style="rounded=0;orthogonalLoop=1;jettySize=auto;html=1;exitX=0.5;exitY=0.5;exitDx=0;exitDy=0;exitPerimeter=0;entryX=0;entryY=0.5;entryDx=0;entryDy=0;endArrow=none;endFill=0;" parent="1" source="-BuoO3h8ccpWQLP4G7d4-2" target="-BuoO3h8ccpWQLP4G7d4-13" edge="1">
          <mxGeometry relative="1" as="geometry" />
        </mxCell>
        <mxCell id="-BuoO3h8ccpWQLP4G7d4-20" style="rounded=0;orthogonalLoop=1;jettySize=auto;html=1;exitX=0.5;exitY=0.5;exitDx=0;exitDy=0;exitPerimeter=0;entryX=0;entryY=0.5;entryDx=0;entryDy=0;endArrow=none;endFill=0;" parent="1" source="-BuoO3h8ccpWQLP4G7d4-2" target="-BuoO3h8ccpWQLP4G7d4-9" edge="1">
          <mxGeometry relative="1" as="geometry" />
        </mxCell>
        <mxCell id="-BuoO3h8ccpWQLP4G7d4-21" style="rounded=0;orthogonalLoop=1;jettySize=auto;html=1;exitX=0.5;exitY=0.5;exitDx=0;exitDy=0;exitPerimeter=0;entryX=0;entryY=0.5;entryDx=0;entryDy=0;endArrow=none;endFill=0;" parent="1" source="-BuoO3h8ccpWQLP4G7d4-2" target="-BuoO3h8ccpWQLP4G7d4-11" edge="1">
          <mxGeometry relative="1" as="geometry" />
        </mxCell>
        <mxCell id="-BuoO3h8ccpWQLP4G7d4-22" style="rounded=0;orthogonalLoop=1;jettySize=auto;html=1;exitX=0.5;exitY=0.5;exitDx=0;exitDy=0;exitPerimeter=0;entryX=0;entryY=0.5;entryDx=0;entryDy=0;endArrow=none;endFill=0;" parent="1" source="-BuoO3h8ccpWQLP4G7d4-2" target="-BuoO3h8ccpWQLP4G7d4-12" edge="1">
          <mxGeometry relative="1" as="geometry" />
        </mxCell>
        <mxCell id="-BuoO3h8ccpWQLP4G7d4-2" value="Пациент" style="shape=umlActor;verticalLabelPosition=bottom;verticalAlign=top;html=1;outlineConnect=0;" parent="1" vertex="1">
          <mxGeometry x="-10" y="495" width="30" height="60" as="geometry" />
        </mxCell>
        <mxCell id="-BuoO3h8ccpWQLP4G7d4-37" style="rounded=0;orthogonalLoop=1;jettySize=auto;html=1;exitX=0.5;exitY=0.5;exitDx=0;exitDy=0;exitPerimeter=0;entryX=1;entryY=0.5;entryDx=0;entryDy=0;endArrow=none;endFill=0;" parent="1" source="-BuoO3h8ccpWQLP4G7d4-3" target="-BuoO3h8ccpWQLP4G7d4-33" edge="1">
          <mxGeometry relative="1" as="geometry" />
        </mxCell>
        <mxCell id="-BuoO3h8ccpWQLP4G7d4-38" style="rounded=0;orthogonalLoop=1;jettySize=auto;html=1;exitX=0.5;exitY=0.5;exitDx=0;exitDy=0;exitPerimeter=0;entryX=1;entryY=0.5;entryDx=0;entryDy=0;endArrow=none;endFill=0;" parent="1" source="-BuoO3h8ccpWQLP4G7d4-3" target="-BuoO3h8ccpWQLP4G7d4-32" edge="1">
          <mxGeometry relative="1" as="geometry" />
        </mxCell>
        <mxCell id="-BuoO3h8ccpWQLP4G7d4-41" style="rounded=0;orthogonalLoop=1;jettySize=auto;html=1;exitX=0.5;exitY=0.5;exitDx=0;exitDy=0;exitPerimeter=0;entryX=1;entryY=0.5;entryDx=0;entryDy=0;endArrow=none;endFill=0;" parent="1" source="-BuoO3h8ccpWQLP4G7d4-3" target="-BuoO3h8ccpWQLP4G7d4-40" edge="1">
          <mxGeometry relative="1" as="geometry" />
        </mxCell>
        <mxCell id="-BuoO3h8ccpWQLP4G7d4-3" value="Врач" style="shape=umlActor;verticalLabelPosition=bottom;verticalAlign=top;html=1;outlineConnect=0;" parent="1" vertex="1">
          <mxGeometry x="1140" y="255" width="30" height="60" as="geometry" />
        </mxCell>
        <mxCell id="-BuoO3h8ccpWQLP4G7d4-6" value="cringe Больница" style="swimlane;whiteSpace=wrap;html=1;" parent="1" vertex="1">
          <mxGeometry x="210" y="190" width="850" height="790" as="geometry" />
        </mxCell>
        <mxCell id="-BuoO3h8ccpWQLP4G7d4-32" value="&lt;div&gt;Провести прием&lt;/div&gt;" style="ellipse;whiteSpace=wrap;html=1;" parent="-BuoO3h8ccpWQLP4G7d4-6" vertex="1">
          <mxGeometry x="630" y="130" width="140" height="70" as="geometry" />
        </mxCell>
        <mxCell id="-BuoO3h8ccpWQLP4G7d4-33" value="Взять анализы" style="ellipse;whiteSpace=wrap;html=1;" parent="-BuoO3h8ccpWQLP4G7d4-6" vertex="1">
          <mxGeometry x="630" y="230" width="140" height="70" as="geometry" />
        </mxCell>
        <mxCell id="-BuoO3h8ccpWQLP4G7d4-31" value="Выписать направление на прием" style="ellipse;whiteSpace=wrap;html=1;" parent="-BuoO3h8ccpWQLP4G7d4-6" vertex="1">
          <mxGeometry x="390" y="40" width="140" height="70" as="geometry" />
        </mxCell>
        <mxCell id="-BuoO3h8ccpWQLP4G7d4-30" value="Выписать направление на анализы" style="ellipse;whiteSpace=wrap;html=1;" parent="-BuoO3h8ccpWQLP4G7d4-6" vertex="1">
          <mxGeometry x="390" y="130" width="140" height="70" as="geometry" />
        </mxCell>
        <mxCell id="-BuoO3h8ccpWQLP4G7d4-29" value="Выписать направление в стационар" style="ellipse;whiteSpace=wrap;html=1;" parent="-BuoO3h8ccpWQLP4G7d4-6" vertex="1">
          <mxGeometry x="390" y="220" width="140" height="70" as="geometry" />
        </mxCell>
        <mxCell id="-BuoO3h8ccpWQLP4G7d4-25" value="Оплатить счет" style="ellipse;whiteSpace=wrap;html=1;" parent="-BuoO3h8ccpWQLP4G7d4-6" vertex="1">
          <mxGeometry x="190" y="230" width="140" height="70" as="geometry" />
        </mxCell>
        <mxCell id="-BuoO3h8ccpWQLP4G7d4-34" value="&amp;lt;&amp;lt;extend&amp;gt;&amp;gt;" style="html=1;verticalAlign=bottom;labelBackgroundColor=none;endArrow=open;endFill=0;dashed=1;rounded=0;exitX=1;exitY=0.5;exitDx=0;exitDy=0;entryX=0;entryY=0;entryDx=0;entryDy=0;" parent="-BuoO3h8ccpWQLP4G7d4-6" source="-BuoO3h8ccpWQLP4G7d4-31" target="-BuoO3h8ccpWQLP4G7d4-32" edge="1">
          <mxGeometry width="160" relative="1" as="geometry">
            <mxPoint x="580" y="240" as="sourcePoint" />
            <mxPoint x="740" y="240" as="targetPoint" />
          </mxGeometry>
        </mxCell>
        <mxCell id="-BuoO3h8ccpWQLP4G7d4-35" value="&amp;lt;&amp;lt;extend&amp;gt;&amp;gt;" style="html=1;verticalAlign=bottom;labelBackgroundColor=none;endArrow=open;endFill=0;dashed=1;rounded=0;exitX=1;exitY=0.5;exitDx=0;exitDy=0;entryX=0;entryY=0.5;entryDx=0;entryDy=0;" parent="-BuoO3h8ccpWQLP4G7d4-6" source="-BuoO3h8ccpWQLP4G7d4-30" target="-BuoO3h8ccpWQLP4G7d4-32" edge="1">
          <mxGeometry width="160" relative="1" as="geometry">
            <mxPoint x="540" y="85" as="sourcePoint" />
            <mxPoint x="640" y="175" as="targetPoint" />
          </mxGeometry>
        </mxCell>
        <mxCell id="-BuoO3h8ccpWQLP4G7d4-36" value="&amp;lt;&amp;lt;extend&amp;gt;&amp;gt;" style="html=1;verticalAlign=bottom;labelBackgroundColor=none;endArrow=open;endFill=0;dashed=1;rounded=0;entryX=0;entryY=1;entryDx=0;entryDy=0;exitX=1;exitY=0.5;exitDx=0;exitDy=0;" parent="-BuoO3h8ccpWQLP4G7d4-6" source="-BuoO3h8ccpWQLP4G7d4-29" target="-BuoO3h8ccpWQLP4G7d4-32" edge="1">
          <mxGeometry width="160" relative="1" as="geometry">
            <mxPoint x="540" y="175" as="sourcePoint" />
            <mxPoint x="640" y="175" as="targetPoint" />
          </mxGeometry>
        </mxCell>
        <mxCell id="-BuoO3h8ccpWQLP4G7d4-40" value="Оказать лечение" style="ellipse;whiteSpace=wrap;html=1;" parent="-BuoO3h8ccpWQLP4G7d4-6" vertex="1">
          <mxGeometry x="630" y="40" width="140" height="70" as="geometry" />
        </mxCell>
        <mxCell id="-BuoO3h8ccpWQLP4G7d4-42" value="Выдать медицинскую карту" style="ellipse;whiteSpace=wrap;html=1;" parent="-BuoO3h8ccpWQLP4G7d4-6" vertex="1">
          <mxGeometry x="640" y="390" width="140" height="70" as="geometry" />
        </mxCell>
        <mxCell id="-BuoO3h8ccpWQLP4G7d4-43" value="Завести медицинскую карту" style="ellipse;whiteSpace=wrap;html=1;" parent="-BuoO3h8ccpWQLP4G7d4-6" vertex="1">
          <mxGeometry x="410" y="390" width="140" height="70" as="geometry" />
        </mxCell>
        <mxCell id="-BuoO3h8ccpWQLP4G7d4-44" value="&amp;lt;&amp;lt;extend&amp;gt;&amp;gt;" style="html=1;verticalAlign=bottom;labelBackgroundColor=none;endArrow=open;endFill=0;dashed=1;rounded=0;exitX=1;exitY=0.5;exitDx=0;exitDy=0;entryX=0;entryY=0.5;entryDx=0;entryDy=0;" parent="-BuoO3h8ccpWQLP4G7d4-6" source="-BuoO3h8ccpWQLP4G7d4-43" target="-BuoO3h8ccpWQLP4G7d4-42" edge="1">
          <mxGeometry x="-0.1111" y="15" width="160" relative="1" as="geometry">
            <mxPoint x="510" y="300" as="sourcePoint" />
            <mxPoint x="670" y="300" as="targetPoint" />
            <mxPoint as="offset" />
          </mxGeometry>
        </mxCell>
        <mxCell id="-BuoO3h8ccpWQLP4G7d4-45" value="Записать пациента на прием" style="ellipse;whiteSpace=wrap;html=1;" parent="-BuoO3h8ccpWQLP4G7d4-6" vertex="1">
          <mxGeometry x="640" y="495" width="140" height="70" as="geometry" />
        </mxCell>
        <mxCell id="-BuoO3h8ccpWQLP4G7d4-46" value="Составить счет для пациента" style="ellipse;whiteSpace=wrap;html=1;" parent="-BuoO3h8ccpWQLP4G7d4-6" vertex="1">
          <mxGeometry x="640" y="600" width="140" height="70" as="geometry" />
        </mxCell>
        <mxCell id="_foJ53aK5BBoc3SyPS7k-4" style="rounded=0;orthogonalLoop=1;jettySize=auto;html=1;exitX=0.5;exitY=0.5;exitDx=0;exitDy=0;exitPerimeter=0;entryX=1;entryY=0.5;entryDx=0;entryDy=0;endArrow=none;endFill=0;" edge="1" parent="-BuoO3h8ccpWQLP4G7d4-6" source="-BuoO3h8ccpWQLP4G7d4-47" target="_foJ53aK5BBoc3SyPS7k-3">
          <mxGeometry relative="1" as="geometry" />
        </mxCell>
        <mxCell id="-BuoO3h8ccpWQLP4G7d4-47" value="Регстратор" style="shape=umlActor;verticalLabelPosition=bottom;verticalAlign=top;html=1;" parent="-BuoO3h8ccpWQLP4G7d4-6" vertex="1">
          <mxGeometry x="990" y="500" width="30" height="60" as="geometry" />
        </mxCell>
        <mxCell id="-BuoO3h8ccpWQLP4G7d4-48" style="rounded=0;orthogonalLoop=1;jettySize=auto;html=1;exitX=0.5;exitY=0.5;exitDx=0;exitDy=0;exitPerimeter=0;entryX=1;entryY=0.5;entryDx=0;entryDy=0;endArrow=none;endFill=0;" parent="-BuoO3h8ccpWQLP4G7d4-6" source="-BuoO3h8ccpWQLP4G7d4-47" target="-BuoO3h8ccpWQLP4G7d4-42" edge="1">
          <mxGeometry relative="1" as="geometry" />
        </mxCell>
        <mxCell id="-BuoO3h8ccpWQLP4G7d4-49" style="rounded=0;orthogonalLoop=1;jettySize=auto;html=1;exitX=0.5;exitY=0.5;exitDx=0;exitDy=0;exitPerimeter=0;endArrow=none;endFill=0;" parent="-BuoO3h8ccpWQLP4G7d4-6" source="-BuoO3h8ccpWQLP4G7d4-47" target="-BuoO3h8ccpWQLP4G7d4-45" edge="1">
          <mxGeometry relative="1" as="geometry" />
        </mxCell>
        <mxCell id="-BuoO3h8ccpWQLP4G7d4-50" style="rounded=0;orthogonalLoop=1;jettySize=auto;html=1;exitX=0.5;exitY=0.5;exitDx=0;exitDy=0;exitPerimeter=0;endArrow=none;endFill=0;entryX=1;entryY=0.5;entryDx=0;entryDy=0;" parent="-BuoO3h8ccpWQLP4G7d4-6" source="-BuoO3h8ccpWQLP4G7d4-47" target="-BuoO3h8ccpWQLP4G7d4-46" edge="1">
          <mxGeometry relative="1" as="geometry">
            <mxPoint x="1015" y="540" as="sourcePoint" />
            <mxPoint x="790" y="540" as="targetPoint" />
          </mxGeometry>
        </mxCell>
        <mxCell id="_foJ53aK5BBoc3SyPS7k-2" value="Изменить запись&lt;div&gt;на прием&lt;/div&gt;" style="ellipse;whiteSpace=wrap;html=1;" vertex="1" parent="-BuoO3h8ccpWQLP4G7d4-6">
          <mxGeometry x="40" y="660" width="120" height="70" as="geometry" />
        </mxCell>
        <mxCell id="_foJ53aK5BBoc3SyPS7k-3" value="Изменить запись пациента" style="ellipse;whiteSpace=wrap;html=1;" vertex="1" parent="-BuoO3h8ccpWQLP4G7d4-6">
          <mxGeometry x="640" y="700" width="140" height="70" as="geometry" />
        </mxCell>
        <mxCell id="_foJ53aK5BBoc3SyPS7k-5" value="Отменить запись" style="ellipse;whiteSpace=wrap;html=1;" vertex="1" parent="-BuoO3h8ccpWQLP4G7d4-6">
          <mxGeometry x="410" y="700" width="140" height="70" as="geometry" />
        </mxCell>
        <mxCell id="_foJ53aK5BBoc3SyPS7k-6" value="&amp;lt;&amp;lt;extend&amp;gt;&amp;gt;" style="html=1;verticalAlign=bottom;labelBackgroundColor=none;endArrow=open;endFill=0;dashed=1;rounded=0;exitX=1;exitY=0.5;exitDx=0;exitDy=0;entryX=0;entryY=0.5;entryDx=0;entryDy=0;" edge="1" parent="-BuoO3h8ccpWQLP4G7d4-6" source="_foJ53aK5BBoc3SyPS7k-5" target="_foJ53aK5BBoc3SyPS7k-3">
          <mxGeometry width="160" relative="1" as="geometry">
            <mxPoint x="500" y="520" as="sourcePoint" />
            <mxPoint x="660" y="520" as="targetPoint" />
          </mxGeometry>
        </mxCell>
        <mxCell id="-BuoO3h8ccpWQLP4G7d4-7" value="Через звонок" style="ellipse;whiteSpace=wrap;html=1;" parent="1" vertex="1">
          <mxGeometry x="440" y="660" width="120" height="70" as="geometry" />
        </mxCell>
        <mxCell id="-BuoO3h8ccpWQLP4G7d4-8" value="Лично" style="ellipse;whiteSpace=wrap;html=1;" parent="1" vertex="1">
          <mxGeometry x="440" y="800" width="120" height="70" as="geometry" />
        </mxCell>
        <mxCell id="-BuoO3h8ccpWQLP4G7d4-9" value="Пройти анализы" style="ellipse;whiteSpace=wrap;html=1;" parent="1" vertex="1">
          <mxGeometry x="250" y="490" width="120" height="70" as="geometry" />
        </mxCell>
        <mxCell id="-BuoO3h8ccpWQLP4G7d4-10" value="Прийти на прием" style="ellipse;whiteSpace=wrap;html=1;" parent="1" vertex="1">
          <mxGeometry x="250" y="250" width="120" height="70" as="geometry" />
        </mxCell>
        <mxCell id="-BuoO3h8ccpWQLP4G7d4-11" value="Получить медицинскую карту" style="ellipse;whiteSpace=wrap;html=1;" parent="1" vertex="1">
          <mxGeometry x="250" y="610" width="120" height="70" as="geometry" />
        </mxCell>
        <mxCell id="-BuoO3h8ccpWQLP4G7d4-12" value="Записаться на прием" style="ellipse;whiteSpace=wrap;html=1;" parent="1" vertex="1">
          <mxGeometry x="250" y="730" width="120" height="70" as="geometry" />
        </mxCell>
        <mxCell id="-BuoO3h8ccpWQLP4G7d4-13" value="Пройти стационарное лечение" style="ellipse;whiteSpace=wrap;html=1;" parent="1" vertex="1">
          <mxGeometry x="250" y="364.5" width="120" height="70" as="geometry" />
        </mxCell>
        <mxCell id="-BuoO3h8ccpWQLP4G7d4-15" value="" style="endArrow=block;endSize=16;endFill=0;html=1;rounded=0;exitX=0;exitY=0.5;exitDx=0;exitDy=0;entryX=1;entryY=0;entryDx=0;entryDy=0;" parent="1" source="-BuoO3h8ccpWQLP4G7d4-7" target="-BuoO3h8ccpWQLP4G7d4-12" edge="1">
          <mxGeometry width="160" relative="1" as="geometry">
            <mxPoint x="440" y="540" as="sourcePoint" />
            <mxPoint x="600" y="540" as="targetPoint" />
          </mxGeometry>
        </mxCell>
        <mxCell id="-BuoO3h8ccpWQLP4G7d4-17" value="" style="endArrow=block;endSize=16;endFill=0;html=1;rounded=0;exitX=0;exitY=0.5;exitDx=0;exitDy=0;entryX=1;entryY=1;entryDx=0;entryDy=0;" parent="1" source="-BuoO3h8ccpWQLP4G7d4-8" target="-BuoO3h8ccpWQLP4G7d4-12" edge="1">
          <mxGeometry width="160" relative="1" as="geometry">
            <mxPoint x="450" y="765" as="sourcePoint" />
            <mxPoint x="380" y="775" as="targetPoint" />
          </mxGeometry>
        </mxCell>
        <mxCell id="-BuoO3h8ccpWQLP4G7d4-26" value="&amp;lt;&amp;lt;extend&amp;gt;&amp;gt;" style="html=1;verticalAlign=bottom;labelBackgroundColor=none;endArrow=open;endFill=0;dashed=1;rounded=0;exitX=0;exitY=0;exitDx=0;exitDy=0;entryX=1;entryY=0.5;entryDx=0;entryDy=0;" parent="1" source="-BuoO3h8ccpWQLP4G7d4-25" target="-BuoO3h8ccpWQLP4G7d4-13" edge="1">
          <mxGeometry x="-0.3456" y="-15" width="160" relative="1" as="geometry">
            <mxPoint x="540" y="470" as="sourcePoint" />
            <mxPoint x="700" y="470" as="targetPoint" />
            <mxPoint as="offset" />
          </mxGeometry>
        </mxCell>
        <mxCell id="-BuoO3h8ccpWQLP4G7d4-27" value="&amp;lt;&amp;lt;extend&amp;gt;&amp;gt;" style="html=1;verticalAlign=bottom;labelBackgroundColor=none;endArrow=open;endFill=0;dashed=1;rounded=0;exitX=0;exitY=1;exitDx=0;exitDy=0;entryX=1;entryY=0.5;entryDx=0;entryDy=0;" parent="1" source="-BuoO3h8ccpWQLP4G7d4-25" target="-BuoO3h8ccpWQLP4G7d4-9" edge="1">
          <mxGeometry x="0.3541" y="-13" width="160" relative="1" as="geometry">
            <mxPoint x="540" y="470" as="sourcePoint" />
            <mxPoint x="700" y="470" as="targetPoint" />
            <mxPoint as="offset" />
          </mxGeometry>
        </mxCell>
        <mxCell id="_foJ53aK5BBoc3SyPS7k-8" value="&amp;lt;&amp;lt;extend&amp;gt;&amp;gt;" style="html=1;verticalAlign=bottom;labelBackgroundColor=none;endArrow=open;endFill=0;dashed=1;rounded=0;exitX=0.5;exitY=0;exitDx=0;exitDy=0;entryX=0.5;entryY=1;entryDx=0;entryDy=0;" edge="1" parent="1" source="_foJ53aK5BBoc3SyPS7k-2" target="-BuoO3h8ccpWQLP4G7d4-12">
          <mxGeometry x="-0.6" y="-30" width="160" relative="1" as="geometry">
            <mxPoint x="440" y="650" as="sourcePoint" />
            <mxPoint x="600" y="650" as="targetPoint" />
            <mxPoint as="offset" />
          </mxGeometry>
        </mxCell>
      </root>
    </mxGraphModel>
  </diagram>
</mxfile>
